<?xml version="1.0" encoding="UTF-8"?>
<svg xmlns="http://www.w3.org/2000/svg" viewBox="0 0 920 1760" width="920" height="1760">
  <rect width="100%" height="100%" fill="#1a1a2e"/>
  
  <!-- Title -->
  <text x="460.0" y="30" text-anchor="middle" fill="white" font-size="18" font-weight="bold" font-family="Arial">HimnarioID 2.0 - Modelo Físico de Base de Datos</text>
  <rect x="40" y="100" width="260" height="236" rx="6" fill="#16213e" stroke="#e94560" stroke-width="1"/>
  <rect x="40" y="100" width="260" height="40" rx="6" fill="#0f3460"/>
  <rect x="40" y="134" width="260" height="6" fill="#0f3460"/>
  <text x="170.0" y="125.0" text-anchor="middle" fill="white" font-size="13" font-weight="bold" font-family="Arial">Himno</text>
  <line x1="40" y1="140" x2="300" y2="140" stroke="#2a2a4e" stroke-width="1"/>
  <text x="48" y="160.0" fill="#ffd700" font-size="11" font-family="monospace">🔑 id</text>
  <text x="292" y="160.0" text-anchor="end" fill="#e0e0e0" font-size="10" font-family="monospace">INTEGER</text>
  <line x1="40" y1="172" x2="300" y2="172" stroke="#2a2a4e" stroke-width="1"/>
  <text x="48" y="192.0" fill="#e0e0e0" font-size="11" font-family="monospace">  titulo_principal</text>
  <text x="292" y="192.0" text-anchor="end" fill="#e0e0e0" font-size="10" font-family="monospace">TEXT</text>
  <line x1="40" y1="204" x2="300" y2="204" stroke="#2a2a4e" stroke-width="1"/>
  <text x="48" y="224.0" fill="#e0e0e0" font-size="11" font-family="monospace">  numero_oficial</text>
  <text x="292" y="224.0" text-anchor="end" fill="#e0e0e0" font-size="10" font-family="monospace">INTEGER</text>
  <line x1="40" y1="236" x2="300" y2="236" stroke="#2a2a4e" stroke-width="1"/>
  <text x="48" y="256.0" fill="#e0e0e0" font-size="11" font-family="monospace">  tipo</text>
  <text x="292" y="256.0" text-anchor="end" fill="#e0e0e0" font-size="10" font-family="monospace">INTEGER</text>
  <line x1="40" y1="268" x2="300" y2="268" stroke="#2a2a4e" stroke-width="1"/>
  <text x="48" y="288.0" fill="#e0e0e0" font-size="11" font-family="monospace">  activo</text>
  <text x="292" y="288.0" text-anchor="end" fill="#e0e0e0" font-size="10" font-family="monospace">INTEGER</text>
  <line x1="40" y1="300" x2="300" y2="300" stroke="#2a2a4e" stroke-width="1"/>
  <text x="48" y="320.0" fill="#e0e0e0" font-size="11" font-family="monospace">  fecha_creacion</text>
  <text x="292" y="320.0" text-anchor="end" fill="#e0e0e0" font-size="10" font-family="monospace">TEXT</text>
  <rect x="330" y="100" width="260" height="204" rx="6" fill="#16213e" stroke="#e94560" stroke-width="1"/>
  <rect x="330" y="100" width="260" height="40" rx="6" fill="#0f3460"/>
  <rect x="330" y="134" width="260" height="6" fill="#0f3460"/>
  <text x="460.0" y="125.0" text-anchor="middle" fill="white" font-size="13" font-weight="bold" font-family="Arial">Version_Pais</text>
  <line x1="330" y1="140" x2="590" y2="140" stroke="#2a2a4e" stroke-width="1"/>
  <text x="338" y="160.0" fill="#ffd700" font-size="11" font-family="monospace">🔑 id</text>
  <text x="582" y="160.0" text-anchor="end" fill="#e0e0e0" font-size="10" font-family="monospace">INTEGER</text>
  <line x1="330" y1="172" x2="590" y2="172" stroke="#2a2a4e" stroke-width="1"/>
  <text x="338" y="192.0" fill="#88ccff" font-size="11" font-family="monospace">🔗 himno_id</text>
  <text x="582" y="192.0" text-anchor="end" fill="#e0e0e0" font-size="10" font-family="monospace">INTEGER</text>
  <line x1="330" y1="204" x2="590" y2="204" stroke="#2a2a4e" stroke-width="1"/>
  <text x="338" y="224.0" fill="#e0e0e0" font-size="11" font-family="monospace">  pais</text>
  <text x="582" y="224.0" text-anchor="end" fill="#e0e0e0" font-size="10" font-family="monospace">TEXT</text>
  <line x1="330" y1="236" x2="590" y2="236" stroke="#2a2a4e" stroke-width="1"/>
  <text x="338" y="256.0" fill="#e0e0e0" font-size="11" font-family="monospace">  tonalidad_original</text>
  <text x="582" y="256.0" text-anchor="end" fill="#e0e0e0" font-size="10" font-family="monospace">TEXT</text>
  <line x1="330" y1="268" x2="590" y2="268" stroke="#2a2a4e" stroke-width="1"/>
  <text x="338" y="288.0" fill="#e0e0e0" font-size="11" font-family="monospace">  activo</text>
  <text x="582" y="288.0" text-anchor="end" fill="#e0e0e0" font-size="10" font-family="monospace">INTEGER</text>
  <rect x="620" y="100" width="260" height="204" rx="6" fill="#16213e" stroke="#e94560" stroke-width="1"/>
  <rect x="620" y="100" width="260" height="40" rx="6" fill="#0f3460"/>
  <rect x="620" y="134" width="260" height="6" fill="#0f3460"/>
  <text x="750.0" y="125.0" text-anchor="middle" fill="white" font-size="13" font-weight="bold" font-family="Arial">Estrofa</text>
  <line x1="620" y1="140" x2="880" y2="140" stroke="#2a2a4e" stroke-width="1"/>
  <text x="628" y="160.0" fill="#ffd700" font-size="11" font-family="monospace">🔑 id</text>
  <text x="872" y="160.0" text-anchor="end" fill="#e0e0e0" font-size="10" font-family="monospace">INTEGER</text>
  <line x1="620" y1="172" x2="880" y2="172" stroke="#2a2a4e" stroke-width="1"/>
  <text x="628" y="192.0" fill="#88ccff" font-size="11" font-family="monospace">🔗 version_pais_id</text>
  <text x="872" y="192.0" text-anchor="end" fill="#e0e0e0" font-size="10" font-family="monospace">INTEGER</text>
  <line x1="620" y1="204" x2="880" y2="204" stroke="#2a2a4e" stroke-width="1"/>
  <text x="628" y="224.0" fill="#e0e0e0" font-size="11" font-family="monospace">  tipo</text>
  <text x="872" y="224.0" text-anchor="end" fill="#e0e0e0" font-size="10" font-family="monospace">TEXT</text>
  <line x1="620" y1="236" x2="880" y2="236" stroke="#2a2a4e" stroke-width="1"/>
  <text x="628" y="256.0" fill="#e0e0e0" font-size="11" font-family="monospace">  orden</text>
  <text x="872" y="256.0" text-anchor="end" fill="#e0e0e0" font-size="10" font-family="monospace">INTEGER</text>
  <line x1="620" y1="268" x2="880" y2="268" stroke="#2a2a4e" stroke-width="1"/>
  <text x="628" y="288.0" fill="#e0e0e0" font-size="11" font-family="monospace">  contenido</text>
  <text x="872" y="288.0" text-anchor="end" fill="#e0e0e0" font-size="10" font-family="monospace">TEXT</text>
  <rect x="40" y="430" width="260" height="108" rx="6" fill="#16213e" stroke="#e94560" stroke-width="1"/>
  <rect x="40" y="430" width="260" height="40" rx="6" fill="#0f3460"/>
  <rect x="40" y="464" width="260" height="6" fill="#0f3460"/>
  <text x="170.0" y="455.0" text-anchor="middle" fill="white" font-size="13" font-weight="bold" font-family="Arial">Categoria</text>
  <line x1="40" y1="470" x2="300" y2="470" stroke="#2a2a4e" stroke-width="1"/>
  <text x="48" y="490.0" fill="#ffd700" font-size="11" font-family="monospace">🔑 id</text>
  <text x="292" y="490.0" text-anchor="end" fill="#e0e0e0" font-size="10" font-family="monospace">INTEGER</text>
  <line x1="40" y1="502" x2="300" y2="502" stroke="#2a2a4e" stroke-width="1"/>
  <text x="48" y="522.0" fill="#e0e0e0" font-size="11" font-family="monospace">  nombre</text>
  <text x="292" y="522.0" text-anchor="end" fill="#e0e0e0" font-size="10" font-family="monospace">TEXT</text>
  <rect x="330" y="430" width="260" height="108" rx="6" fill="#16213e" stroke="#e94560" stroke-width="1"/>
  <rect x="330" y="430" width="260" height="40" rx="6" fill="#0f3460"/>
  <rect x="330" y="464" width="260" height="6" fill="#0f3460"/>
  <text x="460.0" y="455.0" text-anchor="middle" fill="white" font-size="13" font-weight="bold" font-family="Arial">Himno_Categoria</text>
  <line x1="330" y1="470" x2="590" y2="470" stroke="#2a2a4e" stroke-width="1"/>
  <text x="338" y="490.0" fill="#88ccff" font-size="11" font-family="monospace">🔗 himno_id</text>
  <text x="582" y="490.0" text-anchor="end" fill="#e0e0e0" font-size="10" font-family="monospace">INTEGER</text>
  <line x1="330" y1="502" x2="590" y2="502" stroke="#2a2a4e" stroke-width="1"/>
  <text x="338" y="522.0" fill="#88ccff" font-size="11" font-family="monospace">🔗 categoria_id</text>
  <text x="582" y="522.0" text-anchor="end" fill="#e0e0e0" font-size="10" font-family="monospace">INTEGER</text>
  <rect x="40" y="760" width="260" height="236" rx="6" fill="#16213e" stroke="#e94560" stroke-width="1"/>
  <rect x="40" y="760" width="260" height="40" rx="6" fill="#0f3460"/>
  <rect x="40" y="794" width="260" height="6" fill="#0f3460"/>
  <text x="170.0" y="785.0" text-anchor="middle" fill="white" font-size="13" font-weight="bold" font-family="Arial">Usuario</text>
  <line x1="40" y1="800" x2="300" y2="800" stroke="#2a2a4e" stroke-width="1"/>
  <text x="48" y="820.0" fill="#ffd700" font-size="11" font-family="monospace">🔑 id</text>
  <text x="292" y="820.0" text-anchor="end" fill="#e0e0e0" font-size="10" font-family="monospace">INTEGER</text>
  <line x1="40" y1="832" x2="300" y2="832" stroke="#2a2a4e" stroke-width="1"/>
  <text x="48" y="852.0" fill="#e0e0e0" font-size="11" font-family="monospace">  username</text>
  <text x="292" y="852.0" text-anchor="end" fill="#e0e0e0" font-size="10" font-family="monospace">TEXT</text>
  <line x1="40" y1="864" x2="300" y2="864" stroke="#2a2a4e" stroke-width="1"/>
  <text x="48" y="884.0" fill="#e0e0e0" font-size="11" font-family="monospace">  password_hash</text>
  <text x="292" y="884.0" text-anchor="end" fill="#e0e0e0" font-size="10" font-family="monospace">TEXT</text>
  <line x1="40" y1="896" x2="300" y2="896" stroke="#2a2a4e" stroke-width="1"/>
  <text x="48" y="916.0" fill="#e0e0e0" font-size="11" font-family="monospace">  nombre</text>
  <text x="292" y="916.0" text-anchor="end" fill="#e0e0e0" font-size="10" font-family="monospace">TEXT</text>
  <line x1="40" y1="928" x2="300" y2="928" stroke="#2a2a4e" stroke-width="1"/>
  <text x="48" y="948.0" fill="#e0e0e0" font-size="11" font-family="monospace">  rol</text>
  <text x="292" y="948.0" text-anchor="end" fill="#e0e0e0" font-size="10" font-family="monospace">TEXT</text>
  <line x1="40" y1="960" x2="300" y2="960" stroke="#2a2a4e" stroke-width="1"/>
  <text x="48" y="980.0" fill="#e0e0e0" font-size="11" font-family="monospace">  fecha_registro</text>
  <text x="292" y="980.0" text-anchor="end" fill="#e0e0e0" font-size="10" font-family="monospace">TEXT</text>
  <rect x="330" y="760" width="260" height="300" rx="6" fill="#16213e" stroke="#e94560" stroke-width="1"/>
  <rect x="330" y="760" width="260" height="40" rx="6" fill="#0f3460"/>
  <rect x="330" y="794" width="260" height="6" fill="#0f3460"/>
  <text x="460.0" y="785.0" text-anchor="middle" fill="white" font-size="13" font-weight="bold" font-family="Arial">Arreglo_Musical</text>
  <line x1="330" y1="800" x2="590" y2="800" stroke="#2a2a4e" stroke-width="1"/>
  <text x="338" y="820.0" fill="#ffd700" font-size="11" font-family="monospace">🔑 id</text>
  <text x="582" y="820.0" text-anchor="end" fill="#e0e0e0" font-size="10" font-family="monospace">INTEGER</text>
  <line x1="330" y1="832" x2="590" y2="832" stroke="#2a2a4e" stroke-width="1"/>
  <text x="338" y="852.0" fill="#88ccff" font-size="11" font-family="monospace">🔗 version_pais_id</text>
  <text x="582" y="852.0" text-anchor="end" fill="#e0e0e0" font-size="10" font-family="monospace">INTEGER</text>
  <line x1="330" y1="864" x2="590" y2="864" stroke="#2a2a4e" stroke-width="1"/>
  <text x="338" y="884.0" fill="#88ccff" font-size="11" font-family="monospace">🔗 usuario_id</text>
  <text x="582" y="884.0" text-anchor="end" fill="#e0e0e0" font-size="10" font-family="monospace">INTEGER</text>
  <line x1="330" y1="896" x2="590" y2="896" stroke="#2a2a4e" stroke-width="1"/>
  <text x="338" y="916.0" fill="#e0e0e0" font-size="11" font-family="monospace">  nombre_arreglo</text>
  <text x="582" y="916.0" text-anchor="end" fill="#e0e0e0" font-size="10" font-family="monospace">TEXT</text>
  <line x1="330" y1="928" x2="590" y2="928" stroke="#2a2a4e" stroke-width="1"/>
  <text x="338" y="948.0" fill="#e0e0e0" font-size="11" font-family="monospace">  tonalidad_base</text>
  <text x="582" y="948.0" text-anchor="end" fill="#e0e0e0" font-size="10" font-family="monospace">TEXT</text>
  <line x1="330" y1="960" x2="590" y2="960" stroke="#2a2a4e" stroke-width="1"/>
  <text x="338" y="980.0" fill="#e0e0e0" font-size="11" font-family="monospace">  version</text>
  <text x="582" y="980.0" text-anchor="end" fill="#e0e0e0" font-size="10" font-family="monospace">INTEGER</text>
  <line x1="330" y1="992" x2="590" y2="992" stroke="#2a2a4e" stroke-width="1"/>
  <text x="338" y="1012.0" fill="#e0e0e0" font-size="11" font-family="monospace">  fecha_creacion</text>
  <text x="582" y="1012.0" text-anchor="end" fill="#e0e0e0" font-size="10" font-family="monospace">TEXT</text>
  <line x1="330" y1="1024" x2="590" y2="1024" stroke="#2a2a4e" stroke-width="1"/>
  <text x="338" y="1044.0" fill="#e0e0e0" font-size="11" font-family="monospace">  fecha_modificacion</text>
  <text x="582" y="1044.0" text-anchor="end" fill="#e0e0e0" font-size="10" font-family="monospace">TEXT</text>
  <rect x="620" y="760" width="260" height="204" rx="6" fill="#16213e" stroke="#e94560" stroke-width="1"/>
  <rect x="620" y="760" width="260" height="40" rx="6" fill="#0f3460"/>
  <rect x="620" y="794" width="260" height="6" fill="#0f3460"/>
  <text x="750.0" y="785.0" text-anchor="middle" fill="white" font-size="13" font-weight="bold" font-family="Arial">Estrofa_Arreglo</text>
  <line x1="620" y1="800" x2="880" y2="800" stroke="#2a2a4e" stroke-width="1"/>
  <text x="628" y="820.0" fill="#ffd700" font-size="11" font-family="monospace">🔑 id</text>
  <text x="872" y="820.0" text-anchor="end" fill="#e0e0e0" font-size="10" font-family="monospace">INTEGER</text>
  <line x1="620" y1="832" x2="880" y2="832" stroke="#2a2a4e" stroke-width="1"/>
  <text x="628" y="852.0" fill="#88ccff" font-size="11" font-family="monospace">🔗 arreglo_musical_id</text>
  <text x="872" y="852.0" text-anchor="end" fill="#e0e0e0" font-size="10" font-family="monospace">INTEGER</text>
  <line x1="620" y1="864" x2="880" y2="864" stroke="#2a2a4e" stroke-width="1"/>
  <text x="628" y="884.0" fill="#e0e0e0" font-size="11" font-family="monospace">  tipo</text>
  <text x="872" y="884.0" text-anchor="end" fill="#e0e0e0" font-size="10" font-family="monospace">TEXT</text>
  <line x1="620" y1="896" x2="880" y2="896" stroke="#2a2a4e" stroke-width="1"/>
  <text x="628" y="916.0" fill="#e0e0e0" font-size="11" font-family="monospace">  orden</text>
  <text x="872" y="916.0" text-anchor="end" fill="#e0e0e0" font-size="10" font-family="monospace">INTEGER</text>
  <line x1="620" y1="928" x2="880" y2="928" stroke="#2a2a4e" stroke-width="1"/>
  <text x="628" y="948.0" fill="#e0e0e0" font-size="11" font-family="monospace">  contenido</text>
  <text x="872" y="948.0" text-anchor="end" fill="#e0e0e0" font-size="10" font-family="monospace">TEXT</text>
  <rect x="40" y="1090" width="260" height="300" rx="6" fill="#16213e" stroke="#e94560" stroke-width="1"/>
  <rect x="40" y="1090" width="260" height="40" rx="6" fill="#0f3460"/>
  <rect x="40" y="1124" width="260" height="6" fill="#0f3460"/>
  <text x="170.0" y="1115.0" text-anchor="middle" fill="white" font-size="13" font-weight="bold" font-family="Arial">Pista_Audio</text>
  <line x1="40" y1="1130" x2="300" y2="1130" stroke="#2a2a4e" stroke-width="1"/>
  <text x="48" y="1150.0" fill="#ffd700" font-size="11" font-family="monospace">🔑 id</text>
  <text x="292" y="1150.0" text-anchor="end" fill="#e0e0e0" font-size="10" font-family="monospace">INTEGER</text>
  <line x1="40" y1="1162" x2="300" y2="1162" stroke="#2a2a4e" stroke-width="1"/>
  <text x="48" y="1182.0" fill="#88ccff" font-size="11" font-family="monospace">🔗 himno_id</text>
  <text x="292" y="1182.0" text-anchor="end" fill="#e0e0e0" font-size="10" font-family="monospace">INTEGER</text>
  <line x1="40" y1="1194" x2="300" y2="1194" stroke="#2a2a4e" stroke-width="1"/>
  <text x="48" y="1214.0" fill="#e0e0e0" font-size="11" font-family="monospace">  ruta_archivo</text>
  <text x="292" y="1214.0" text-anchor="end" fill="#e0e0e0" font-size="10" font-family="monospace">TEXT</text>
  <line x1="40" y1="1226" x2="300" y2="1226" stroke="#2a2a4e" stroke-width="1"/>
  <text x="48" y="1246.0" fill="#e0e0e0" font-size="11" font-family="monospace">  descripcion</text>
  <text x="292" y="1246.0" text-anchor="end" fill="#e0e0e0" font-size="10" font-family="monospace">TEXT</text>
  <line x1="40" y1="1258" x2="300" y2="1258" stroke="#2a2a4e" stroke-width="1"/>
  <text x="48" y="1278.0" fill="#e0e0e0" font-size="11" font-family="monospace">  origen</text>
  <text x="292" y="1278.0" text-anchor="end" fill="#e0e0e0" font-size="10" font-family="monospace">TEXT</text>
  <line x1="40" y1="1290" x2="300" y2="1290" stroke="#2a2a4e" stroke-width="1"/>
  <text x="48" y="1310.0" fill="#e0e0e0" font-size="11" font-family="monospace">  duracion_segundos</text>
  <text x="292" y="1310.0" text-anchor="end" fill="#e0e0e0" font-size="10" font-family="monospace">REAL</text>
  <line x1="40" y1="1322" x2="300" y2="1322" stroke="#2a2a4e" stroke-width="1"/>
  <text x="48" y="1342.0" fill="#e0e0e0" font-size="11" font-family="monospace">  formato</text>
  <text x="292" y="1342.0" text-anchor="end" fill="#e0e0e0" font-size="10" font-family="monospace">TEXT</text>
  <line x1="40" y1="1354" x2="300" y2="1354" stroke="#2a2a4e" stroke-width="1"/>
  <text x="48" y="1374.0" fill="#88ccff" font-size="11" font-family="monospace">🔗 usuario_donante_id</text>
  <text x="292" y="1374.0" text-anchor="end" fill="#e0e0e0" font-size="10" font-family="monospace">INTEGER</text>
  <rect x="330" y="1090" width="260" height="268" rx="6" fill="#16213e" stroke="#e94560" stroke-width="1"/>
  <rect x="330" y="1090" width="260" height="40" rx="6" fill="#0f3460"/>
  <rect x="330" y="1124" width="260" height="6" fill="#0f3460"/>
  <text x="460.0" y="1115.0" text-anchor="middle" fill="white" font-size="13" font-weight="bold" font-family="Arial">Fondo_Pantalla</text>
  <line x1="330" y1="1130" x2="590" y2="1130" stroke="#2a2a4e" stroke-width="1"/>
  <text x="338" y="1150.0" fill="#ffd700" font-size="11" font-family="monospace">🔑 id</text>
  <text x="582" y="1150.0" text-anchor="end" fill="#e0e0e0" font-size="10" font-family="monospace">INTEGER</text>
  <line x1="330" y1="1162" x2="590" y2="1162" stroke="#2a2a4e" stroke-width="1"/>
  <text x="338" y="1182.0" fill="#e0e0e0" font-size="11" font-family="monospace">  nombre</text>
  <text x="582" y="1182.0" text-anchor="end" fill="#e0e0e0" font-size="10" font-family="monospace">TEXT</text>
  <line x1="330" y1="1194" x2="590" y2="1194" stroke="#2a2a4e" stroke-width="1"/>
  <text x="338" y="1214.0" fill="#e0e0e0" font-size="11" font-family="monospace">  tipo</text>
  <text x="582" y="1214.0" text-anchor="end" fill="#e0e0e0" font-size="10" font-family="monospace">TEXT</text>
  <line x1="330" y1="1226" x2="590" y2="1226" stroke="#2a2a4e" stroke-width="1"/>
  <text x="338" y="1246.0" fill="#e0e0e0" font-size="11" font-family="monospace">  ruta_archivo</text>
  <text x="582" y="1246.0" text-anchor="end" fill="#e0e0e0" font-size="10" font-family="monospace">TEXT</text>
  <line x1="330" y1="1258" x2="590" y2="1258" stroke="#2a2a4e" stroke-width="1"/>
  <text x="338" y="1278.0" fill="#e0e0e0" font-size="11" font-family="monospace">  color_hex</text>
  <text x="582" y="1278.0" text-anchor="end" fill="#e0e0e0" font-size="10" font-family="monospace">TEXT</text>
  <line x1="330" y1="1290" x2="590" y2="1290" stroke="#2a2a4e" stroke-width="1"/>
  <text x="338" y="1310.0" fill="#e0e0e0" font-size="11" font-family="monospace">  es_predeterminado</text>
  <text x="582" y="1310.0" text-anchor="end" fill="#e0e0e0" font-size="10" font-family="monospace">INTEGER</text>
  <line x1="330" y1="1322" x2="590" y2="1322" stroke="#2a2a4e" stroke-width="1"/>
  <text x="338" y="1342.0" fill="#e0e0e0" font-size="11" font-family="monospace">  activo</text>
  <text x="582" y="1342.0" text-anchor="end" fill="#e0e0e0" font-size="10" font-family="monospace">INTEGER</text>
  <rect x="40" y="1420" width="260" height="108" rx="6" fill="#16213e" stroke="#e94560" stroke-width="1"/>
  <rect x="40" y="1420" width="260" height="40" rx="6" fill="#0f3460"/>
  <rect x="40" y="1454" width="260" height="6" fill="#0f3460"/>
  <text x="170.0" y="1445.0" text-anchor="middle" fill="white" font-size="13" font-weight="bold" font-family="Arial">Configuracion</text>
  <line x1="40" y1="1460" x2="300" y2="1460" stroke="#2a2a4e" stroke-width="1"/>
  <text x="48" y="1480.0" fill="#ffd700" font-size="11" font-family="monospace">🔑 clave</text>
  <text x="292" y="1480.0" text-anchor="end" fill="#e0e0e0" font-size="10" font-family="monospace">TEXT</text>
  <line x1="40" y1="1492" x2="300" y2="1492" stroke="#2a2a4e" stroke-width="1"/>
  <text x="48" y="1512.0" fill="#e0e0e0" font-size="11" font-family="monospace">  valor</text>
  <text x="292" y="1512.0" text-anchor="end" fill="#e0e0e0" font-size="10" font-family="monospace">TEXT</text>
  <rect x="620" y="1420" width="260" height="172" rx="6" fill="#16213e" stroke="#e94560" stroke-width="1"/>
  <rect x="620" y="1420" width="260" height="40" rx="6" fill="#0f3460"/>
  <rect x="620" y="1454" width="260" height="6" fill="#0f3460"/>
  <text x="750.0" y="1445.0" text-anchor="middle" fill="white" font-size="13" font-weight="bold" font-family="Arial">Historial_Reproduccion</text>
  <line x1="620" y1="1460" x2="880" y2="1460" stroke="#2a2a4e" stroke-width="1"/>
  <text x="628" y="1480.0" fill="#ffd700" font-size="11" font-family="monospace">🔑 id</text>
  <text x="872" y="1480.0" text-anchor="end" fill="#e0e0e0" font-size="10" font-family="monospace">INTEGER</text>
  <line x1="620" y1="1492" x2="880" y2="1492" stroke="#2a2a4e" stroke-width="1"/>
  <text x="628" y="1512.0" fill="#88ccff" font-size="11" font-family="monospace">🔗 himno_id</text>
  <text x="872" y="1512.0" text-anchor="end" fill="#e0e0e0" font-size="10" font-family="monospace">INTEGER</text>
  <line x1="620" y1="1524" x2="880" y2="1524" stroke="#2a2a4e" stroke-width="1"/>
  <text x="628" y="1544.0" fill="#88ccff" font-size="11" font-family="monospace">🔗 version_pais_id</text>
  <text x="872" y="1544.0" text-anchor="end" fill="#e0e0e0" font-size="10" font-family="monospace">INTEGER</text>
  <line x1="620" y1="1556" x2="880" y2="1556" stroke="#2a2a4e" stroke-width="1"/>
  <text x="628" y="1576.0" fill="#e0e0e0" font-size="11" font-family="monospace">  timestamp</text>
  <text x="872" y="1576.0" text-anchor="end" fill="#e0e0e0" font-size="10" font-family="monospace">TEXT</text>
  <path d="M170.0,218.0 C315.0,218.0 315.0,202.0 460.0,202.0" fill="none" stroke="#88cccc" stroke-width="1.5" stroke-dasharray="6,3" opacity="0.7"/>
  <path d="M460.0,202.0 C605.0,202.0 605.0,202.0 750.0,202.0" fill="none" stroke="#88cccc" stroke-width="1.5" stroke-dasharray="6,3" opacity="0.7"/>
  <path d="M460.0,202.0 C460.0,202.0 460.0,910.0 460.0,910.0" fill="none" stroke="#88cccc" stroke-width="1.5" stroke-dasharray="6,3" opacity="0.7"/>
  <path d="M460.0,910.0 C605.0,910.0 605.0,862.0 750.0,862.0" fill="none" stroke="#88cccc" stroke-width="1.5" stroke-dasharray="6,3" opacity="0.7"/>
  <path d="M170.0,878.0 C315.0,878.0 315.0,910.0 460.0,910.0" fill="none" stroke="#88cccc" stroke-width="1.5" stroke-dasharray="6,3" opacity="0.7"/>
  <path d="M170.0,878.0 C170.0,878.0 170.0,1240.0 170.0,1240.0" fill="none" stroke="#88cccc" stroke-width="1.5" stroke-dasharray="6,3" opacity="0.7"/>
  <path d="M170.0,218.0 C170.0,218.0 170.0,1240.0 170.0,1240.0" fill="none" stroke="#88cccc" stroke-width="1.5" stroke-dasharray="6,3" opacity="0.7"/>
  <path d="M170.0,218.0 C460.0,218.0 460.0,1506.0 750.0,1506.0" fill="none" stroke="#88cccc" stroke-width="1.5" stroke-dasharray="6,3" opacity="0.7"/>
  <path d="M170.0,218.0 C315.0,218.0 315.0,484.0 460.0,484.0" fill="none" stroke="#88cccc" stroke-width="1.5" stroke-dasharray="6,3" opacity="0.7"/>
  <path d="M170.0,484.0 C315.0,484.0 315.0,484.0 460.0,484.0" fill="none" stroke="#88cccc" stroke-width="1.5" stroke-dasharray="6,3" opacity="0.7"/>

  <rect x="20" y="1725" width="14" height="14" fill="#ffd700" rx="2"/>
  <text x="40" y="1737" fill="#e0e0e0" font-size="11" font-family="Arial">Primary Key</text>
  <rect x="140" y="1725" width="14" height="14" fill="#88ccff" rx="2"/>
  <text x="160" y="1737" fill="#e0e0e0" font-size="11" font-family="Arial">Foreign Key</text>
  <text x="670" y="1737" fill="#88cccc" font-size="11" font-family="Arial">- - - -  Relación 1 a N</text>
</svg>